<svg class="img-fluid" xmlns="http://www.w3.org/2000/svg" style="transform:matrix(1,0,0,1,0,0);transform-origin:50% 50% 0;cursor:move;max-height:none;transition:transform 200ms ease-in-out 0s" width="512" height="512" viewBox="0 0 5120 5120"><defs><radialGradient id="b" gradientUnits="userSpaceOnUse" cx="92%" cy="35%" r="74.023%"><stop offset="14%" style="stop-color:#b2cac4"/><stop offset="40%" style="stop-color:#a0b9ba"/><stop offset="100%" style="stop-color:#627a91"/></radialGradient><radialGradient id="a" gradientUnits="userSpaceOnUse" cx="12.695%" cy="61.523%" r="59.57%"><stop offset="0%" style="stop-color:#4f4c79"/><stop offset="28%" style="stop-color:#4f4873"/><stop offset="29%" style="stop-color:#50456f"/><stop offset="36%" style="stop-color:#50426b"/><stop offset="37%" style="stop-color:#503f68"/><stop offset="38%" style="stop-color:#50436c"/><stop offset="100%" style="stop-color:#542c4d"/></radialGradient></defs><g style="transform:none;transform-origin:50% 50% 0"><g style="transform:none" fill="#552847"><path d="M225 2361c-36-15-83-72-95-116-27-95 49-191 173-219 27-6 28-6 25 30-3 32-7 37-41 49-74 25-106 74-87 131 15 43 45 64 92 64 37 0 38 1 38 35 0 35 0 35-42 34-24 0-52-4-63-8z" fill="url(#a)"/><path d="M300 1871c-19-37-8-121 16-121 11 0 14 17 14 70 0 70-10 87-30 51z"/></g></g><g style="transform:none;transform-origin:50% 50% 0"><path d="M690 3271c-13-25-13-87 0-112 9-15 22-19 66-19 30 0 68 7 84 15 26 14 30 21 30 60s-4 46-30 60c-16 8-54 15-84 15-44 0-57-4-66-19z" style="transform:none" fill="#3B3158"/></g><g style="transform:none;transform-origin:50% 50% 0"><g style="transform:none" fill="url(#a)"><path d="M2830 4800c-127-13-190-29-190-49 0-12 105-88 335-241 375-250 337-236 388-145 31 56 31 182 0 240-26 49-96 116-152 144-84 43-245 65-381 51zM300 2337c0-33 2-36 40-42 45-8 60-2 60 24 0 25-21 41-64 48-36 6-36 5-36-30zM415 2097c-22-4-57-6-78-4l-38 5 3-36 3-37 73 1c40 1 75 4 78 7s4 20 2 39l-3 34-40-9zM390 1968c-64-33-90-76-90-152 0-65 15-99 60-134 20-15 81-42 96-42 2 0 4 16 4 35 0 30-5 37-34 49-88 37-80 163 12 191 17 5 22 14 22 41 0 41-10 42-70 12z"/></g></g><g style="transform:none;transform-origin:50% 50% 0"><g style="transform:none" fill="url(#a)"><path d="M2520 4737c-137-43-231-79-360-139-152-71-390-201-390-214 0-6 150-111 333-232 285-190 338-222 370-222 43 0 499 133 635 186 115 44 216 110 220 142 3 21 2 22-18 12l-22-12 23 31c12 17 21 32 18 35-37 32-674 446-686 446-10-1-65-16-123-33zM680 2258c-65-71-136-122-202-144-45-15-48-18-48-51 0-34 1-34 32-28 57 12 169 77 230 133 55 52 58 56 58 103 0 27-3 48-7 48-5-1-33-28-63-61zM430 1949c0-26 4-38 11-34 6 4 31 2 55-5 40-11 47-11 62 4 13 12 14 21 6 33-12 19-67 41-106 42-26 1-28-2-28-40zM695 1774c-65-45-142-68-212-62l-54 5 3-36 3-36h81c74 1 89 4 158 38l76 38v45c0 24-1 44-2 43-2 0-25-16-53-35z"/></g></g><g style="transform:none;transform-origin:50% 50% 0"><g style="transform:none" fill="#523E65"><path d="M1652 4324c-78-47-142-89-142-94 0-6 142-104 315-220 227-152 323-210 344-210 15 0 62 15 102 34 41 19 131 54 202 78 98 33 127 47 127 60 0 22-10 22-76 1l-54-17-338 226-339 226-141-84z" fill="url(#a)"/><path d="M3238 4227c-26-18-48-35-48-39 0-5 16-8 35-8s35 5 35 10c0 6 7 10 15 10 10 0 15 10 15 30 0 17-1 30-2 29-2 0-24-15-50-32zM3066 4142c-86-34-101-57-30-49 27 3 50 10 52 16s15 11 28 11c19 0 24 5 24 25 0 14-1 25-2 24-2 0-34-12-72-27zM2918 4093c-33-8-20-33 17-33 28 0 35 4 35 20 0 20-14 23-52 13zM2818 4063c-33-8-20-33 17-33 28 0 35 4 35 20 0 20-14 23-52 13zM2683 4022c-62-17-72-42-18-42 19 0 35 5 35 10 0 6 16 10 35 10 28 0 35 4 35 20 0 24-14 24-87 2z"/><path d="M820 2466c-10-24-37-73-59-109-33-52-41-73-41-112v-48l21 19c12 10 43 53 70 94 46 69 49 78 49 137 0 75-13 81-40 19zM783 1850c-53-57-63-73-63-104 0-32 2-36 18-27 10 5 42 31 70 56 49 44 52 49 52 96 0 27-3 49-7 48-5 0-36-31-70-69z" fill="url(#a)"/></g></g><g style="transform:none;transform-origin:50% 50% 0"><g style="transform:none" fill="#50446E"><path d="M1354 4138c-173-116-350-244-374-273-8-9-9-19-4-24s138-95 296-200c191-127 297-191 314-191 16 0 74 32 153 84 114 76 253 158 397 233 30 15 54 34 54 41s13 12 30 12c32 0 80 19 80 32 0 4 11 8 25 8s25 4 25 9 18 11 40 15c34 5 40 10 40 31v25l-57-21c-32-12-91-37-131-55l-73-33-315 209c-172 116-317 210-322 210s-85-51-178-112z" fill="url(#a)"/><path d="M2888 4083c-33-8-20-33 17-33 28 0 35 4 35 20 0 20-14 23-52 13zM2788 4053c-33-8-20-33 17-33 28 0 35 4 35 20 0 20-14 23-52 13zM2603 3998c-41-13-44-38-5-38 47 0 72 11 72 31 0 21-17 23-67 7zM720 3285c0-8-9-15-20-15-18 0-20-7-20-55 0-42 3-55 15-55 8 0 15-7 15-15 0-21 79-20 125 2 30 14 35 22 35 50 0 18-4 33-10 33-5 0-10 11-10 24 0 18-8 27-31 35-47 16-99 14-99-4zm90-40c38-20 38-40 0-60-44-23-78-19-91 9-25 54 28 84 91 51zM1017 3103c-12-11-7-33 7-33 8 0 16-15 20-37 14-82 18-93 32-93 11 0 14 18 14 85v85h-33c-19 0-37-3-40-7z"/><path d="M908 3054c-31-16-38-44-11-44 14 0 15-13 10-132-7-138-23-230-57-334-15-44-20-82-18-130l3-69 28 53c71 135 117 348 117 544 0 68 4 108 12 116 18 18-50 15-84-4zM1055 2453c-33-194-106-385-191-506-28-39-34-56-34-99 0-50 0-51 20-33 29 26 113 152 148 220 16 33 44 100 61 148 27 78 31 101 31 198 0 89-3 109-15 109-9 0-17-14-20-37z" fill="url(#a)"/></g></g><g style="transform:none;transform-origin:50% 50% 0"><g style="transform:none" fill="#4F4B77"><path d="M2321 3897c-66-27-77-47-27-47 20 0 36 5 36 10 0 6 11 10 25 10 20 0 25 5 25 25 0 14-1 25-2 25-2-1-27-11-57-23z"/><path d="M924 3822c-168-137-315-307-371-428-62-133-18-263 118-347 87-53 205-57 294-8 97 54 91 61 99-121 4-87 4-286 1-441-5-261-4-279 10-242 58 149 81 483 51 724-10 73-19 138-22 145-2 6 9 19 24 28 16 10 64 42 106 73 43 30 79 55 82 55 2 0 4-7 4-15s6-15 13-15c13 0 290 217 295 231 2 5 10 9 18 9s14 7 14 15 9 15 20 15 20 5 20 10c0 6 7 10 15 10s15 5 15 10c0 6 7 10 15 10s15 5 15 10c0 6 7 10 15 10 9 0 15 9 15 25 0 14-4 25-8 25-5 0-50-29-102-64l-93-64-297 198-298 199-68-57zm-106-578c33-21 28-48-13-67-44-21-54-21-77 0-25 22-23 59 4 77 23 17 47 14 86-10z" fill="url(#a)"/><path d="M2193 3840c-51-23-55-40-10-40 42 0 60 12 55 38l-3 21-42-19zM2088 3788c-46-26-48-38-9-38 45 0 61 10 61 36 0 29-5 29-52 2zM1898 3683c-54-31-98-61-98-65s16-8 35-8c24 0 35 5 35 15 0 9 9 15 25 15 18 0 25 5 25 20s7 20 29 20c45 0 61 10 61 36 0 13-3 24-7 24-5 0-52-26-105-57z"/></g></g><g style="transform:none;transform-origin:50% 50% 0"><g style="transform:none" fill="#59587B"><path d="M3221 4214c-85-52-176-87-466-174-279-84-526-176-533-197-5-19 63-17 82 2 8 8 24 15 35 15 12 0 21 5 21 10 0 6 11 10 25 10s25 5 25 10c0 6 8 10 17 10 26 0 177 51 181 61 2 5 15 9 29 9 35 0 427 119 431 131 2 5 15 9 28 9s24 5 24 10c0 6 9 10 20 10 29 0 90 32 90 47 0 7 11 13 25 13 21 0 25 5 25 30 0 17-1 30-2 29-2-1-27-16-57-35zM2142 3814c-59-29-66-44-22-44 46 0 80 20 80 47 0 12-1 23-3 23s-26-12-55-26zM1910 3688c-58-33-150-91-205-129-132-89-379-286-383-305-2-9 5-14 22-14 19 0 26 5 26 20s7 20 24 20c18 0 25 6 28 22 2 17 9 22 26 20 17-3 22 2 22 17 0 16 6 21 25 21 18 0 25 5 25 20s7 20 25 20c16 0 25 6 25 15 0 8 9 15 20 15s20 7 20 15 9 15 20 15 20 7 20 15 9 15 20 15 20 5 20 10c0 6 7 10 15 10s15 5 15 10c0 6 7 10 15 10s15 5 15 10c0 6 7 10 15 10s15 5 15 10c0 6 7 10 15 10s15 5 15 10c0 6 7 10 15 10s15 7 15 15c0 9 9 15 25 15s25 6 25 15c0 8 9 15 19 15 33 0 51 11 51 31 0 15 7 19 35 19 31 0 35 3 35 25 0 14-3 25-7 25-5-1-55-28-113-62z"/></g></g><g style="transform:none;transform-origin:50% 50% 0"><g style="transform:none" fill="#5D6585"><path d="M3273 4247c-15-13-43-32-60-42-42-25-42-35 2-35 31 0 35 3 35 25s4 25 35 25 35 3 35 25c0 31-11 31-47 2zM3091 4147c-66-27-77-47-27-47 20 0 36 5 36 10 0 6 11 10 25 10 20 0 25 5 25 25 0 14-1 25-2 25-2-1-27-11-57-23zM2868 4073c-33-8-20-33 17-33 28 0 35 4 35 20 0 20-14 23-52 13zM2668 4012c-81-24-118-40-118-50 0-11 10-13 46-9 26 2 49 9 53 14 3 6 26 13 51 16 24 3 46 11 48 16 2 6 19 11 38 11 27 0 34 4 34 20 0 26-12 25-152-18zM2336 3897c-135-54-165-77-102-77 25 0 36 4 36 15 0 10 11 15 35 15 19 0 35 5 35 10 0 6 11 10 25 10s25 4 25 9 18 11 40 15c34 5 40 10 40 31 0 14-1 25-2 25-2 0-61-24-132-53zM1949 3707c-214-123-219-127-154-127 19 0 35 5 35 10 0 6 6 10 14 10s21 6 28 14c8 7 24 17 36 20 12 4 22 14 22 22s9 14 19 14c30 0 51 11 51 26 0 8 9 14 20 14 39 0 90 32 90 57 0 13-4 23-8 23-5 0-73-37-153-83zM1589 3473c-64-49-150-115-192-148-75-59-97-95-57-95 13 0 20 7 20 20 0 15 7 20 25 20s25 5 25 20 7 20 25 20 25 5 25 20 7 20 25 20 25 5 25 20 7 20 25 20c16 0 25 6 25 15 0 8 9 15 20 15s20 7 20 15 9 15 20 15 20 7 20 15 9 15 20 15 20 5 20 10c0 6 7 10 15 10 10 0 15 10 15 30 0 17-1 30-3 30-1 0-55-39-118-87z"/></g></g><g style="transform:none;transform-origin:50% 50% 0"><g style="transform:none" fill="#607390"><path d="m3270 4240-35-29 38-1c35 0 37 2 37 30 0 17-1 30-3 30-1 0-18-13-37-30zM3093 4145c-43-18-42-35 2-35 31 0 35 3 35 25 0 14-1 25-2 25-2-1-18-7-35-15zM2983 4107c-98-33-72-65 28-35 31 9 39 16 39 35 0 12-1 23-2 22-2 0-31-10-65-22zM2788 4047c-74-23-91-47-33-47 19 0 35 5 35 10 0 6 12 10 28 10 47 0 72 11 72 31 0 23-15 23-102-4zM2546 3972c-108-36-146-62-90-62 35 0 134 31 134 42 0 4 12 8 28 8 47 0 72 11 72 31 0 26-17 24-144-19z"/><path d="M2299 3881c-131-54-239-110-239-122 0-5 13-9 30-9 36 0 160 59 160 77 0 8 13 13 35 13 19 0 35 5 35 10 0 6 11 10 25 10s25 5 25 10c0 6 11 10 25 10 20 0 25 5 25 25 0 14-1 25-2 25-2 0-55-22-119-49zM1883 3666c-78-46-182-113-230-147-102-74-333-257-333-264 0-3 16-5 36-5 27 0 37 5 41 20 3 11 14 20 25 20s22 9 25 20 14 20 25 20 22 9 25 20 14 20 25 20 22 9 25 20 14 20 24 20c11 0 19 7 19 15s9 15 20 15 20 7 20 15 9 15 20 15 20 5 20 10c0 6 7 10 15 10s15 7 15 15 9 15 20 15 20 5 20 10c0 6 7 10 15 10s15 5 15 10c0 6 7 10 15 10s15 7 15 15c0 9 9 15 25 15s25 6 25 15 9 15 25 15 25 6 25 15 9 15 25 15c18 0 25 5 25 20s7 20 29 20c45 0 61 10 61 36 0 13-3 24-8 24-4 0-71-38-149-84z"/></g></g><g style="transform:none;transform-origin:50% 50% 0"><g style="transform:none" fill="#63809B"><path d="M3245 4224c-11-9-41-27-67-40-55-28-61-44-19-44 39 0 61 9 61 26 0 8 10 14 25 14 21 0 25 5 25 30 0 35 1 34-25 14zM3043 4125c-43-18-42-35 2-35 31 0 35 3 35 25 0 14-1 25-2 25-2-1-18-7-35-15zM2893 4078c-41-13-44-38-5-38 47 0 72 11 72 31 0 21-17 23-67 7z"/><path d="M2615 3992c-99-32-218-73-265-91-185-74-498-245-673-368-73-52-311-236-345-268-27-25 44-352 131-610 59-173 101-275 204-486l85-176 334-127c183-69 347-126 364-126 27 0 30 3 30 31 0 26-16 47-95 126-239 238-565 648-565 710 0 20 465 1101 480 1117 5 5 54-2 118-18 60-14 126-26 148-26h39l80 159c74 151 81 160 112 166 24 4 33 11 33 25 0 13-7 20-17 19-10 0-99-26-198-57z" fill="url(#b)"/></g></g><g style="transform:none;transform-origin:50% 50% 0"><path d="M3367 4289c-31-10-78-34-103-54-26-19-76-49-113-66-62-30-381-139-406-139-6 0-46-72-90-161-92-186-58-170-258-121-106 26-119 28-126 13-27-50-501-1154-501-1166 0-8 5-15 10-15 6 0 10-5 10-11 0-18 116-184 218-313 116-146 220-263 348-390l97-96-79 29c-44 16-205 77-358 135-154 58-281 105-282 103-5-4 175-316 261-452 168-269 222-341 262-357 21-9 278-107 571-218 407-154 536-200 545-191 8 8 12 50 12 115 0 79 3 102 13 99 7-3 12 3 12 13 0 11-22 33-52 54-246 166-613 460-814 652-50 48-89 78-103 78-13 0-21 6-21 17 0 9-13 31-30 47-69 71-210 230-210 237 0 8 628 1461 634 1467 2 2 44-4 92-12 49-9 109-16 134-16h45l178 349c159 313 194 393 170 390-5-1-34-9-66-20z" fill="url(#b)" style="transform:none"/></g><g style="transform:none;transform-origin:50% 50% 0"><g style="transform:none" fill="#7995A7"><path d="m3515 4336-100-31-177-345c-98-190-179-349-181-354-2-6-57-1-132 12-72 12-133 18-137 14s-154-346-333-760l-326-753 64-72c36-40 109-117 163-172 96-97 98-99 102-71 3 24-6 38-49 82-39 40-61 54-81 54-15 0-28 1-28 3 0 1 157 364 349 807l349 805 64-4c35-3 81-5 103-5l40-1 58 113c40 77 63 112 75 112 22 0 152 256 152 300 0 46 95 230 119 230 20 0 31 18 31 51 0 24-5 24-125-15z" fill="url(#b)"/><path d="M2545 1690c3-5 19-19 35-30l30-21v30c0 29-3 31-36 31-20 0-33-4-29-10zM2645 1602c68-63 259-220 348-286l37-28v31c0 24-4 31-20 31-11 0-20 7-20 15 0 9-9 15-25 15-18 0-25 5-25 20s-7 20-25 20-25 5-25 20-7 20-25 20-25 5-25 20c0 16-7 20-35 20-32 0-35 2-35 30s-3 30-35 30-35 2-35 30-3 30-37 30c-37 0-37 0-18-18z"/><path d="m2261 1179 84-124 480-182c264-101 487-182 495-180 17 2 65 136 53 148-4 4-271 107-593 229s-589 224-594 227 29-50 75-118z" fill="url(#b)"/><path d="M3165 1190c3-5 19-19 35-30l30-21v30c0 29-3 31-36 31-20 0-33-4-29-10zM3305 1090c3-5 19-19 35-30l30-21v30c0 29-3 31-36 31-20 0-33-4-29-10z"/></g></g><g style="transform:none;transform-origin:50% 50% 0"><g style="transform:none" fill="url(#b)"><path d="M4036 4469c-180-37-420-100-424-110-2-4-9-6-16-3s-18-1-23-8c-6-7-93-175-193-373-101-198-189-369-196-381-12-21-14-21-109-6-53 8-97 13-99 11s-163-370-356-817l-353-814 124-125c221-222 534-484 841-704 158-113 168-118 168-83 0 17-7 28-20 31-11 3-20 9-20 14s-7 9-15 9-15 5-15 10c0 6-6 10-14 10s-16 7-20 15c-3 8-12 15-20 15-7 0-16 7-20 15-3 8-12 15-21 15-8 0-15 5-15 10 0 6-6 10-14 10s-16 7-20 15c-3 8-12 15-20 15-7 0-16 7-20 15-3 8-12 15-20 15-7 0-16 7-20 15-3 8-12 15-20 15-7 0-16 7-20 15-3 8-15 15-26 15s-20 7-20 15c0 9-8 19-17 22-10 4-24 15-31 25s-19 18-26 18c-8 0-16 7-20 15-3 8-14 15-25 15-10 0-21 9-24 21-3 11-14 23-24 26s-27 17-39 31l-21 27 318 735c176 404 365 840 420 968l102 232h72l250 491c138 270 251 499 253 510 4 25-2 24-172-12zM2916 3559c-198-449-676-1563-671-1567 3-3 7-3 8-1 14 17 698 1611 693 1616-3 3-16-18-30-48zM2316 1098c4-7 39-62 78-123 38-60 94-155 122-209l52-99 283-108 283-107 31 26c76 67 188 222 172 239-4 3-210 83-459 178-608 231-570 217-562 203z"/></g></g><g style="transform:none;transform-origin:50% 50% 0"><g style="transform:none" fill="#91ACB3"><path d="M4307 4520c-59-10-113-20-120-23-7-2-124-224-261-493l-249-489-35-3c-20-1-37-4-40-6-2-2-196-449-432-992l-428-987 72-61c68-58 263-210 353-277l43-31v31c0 24-4 31-20 31-11 0-20 7-20 15s-9 15-20 15-20 7-20 15-9 15-20 15-20 7-20 15-9 15-20 15-20 6-20 14-11 16-23 18c-23 3-3 52 430 1048 250 575 455 1059 456 1075 2 26-2 31-28 35-22 3-14 6 30 10l60 5 252 495c139 272 253 503 253 513 0 22-28 21-173-3zM3550 3488c-232-521-836-1935-829-1942 5-5 10-8 12-5 3 2 185 423 407 934 221 512 413 954 426 983 18 42 20 52 8 52-8 0-19-10-24-22z" fill="url(#b)"/><path d="M3255 1130c3-5 26-24 51-40l44-31v31c0 20-5 30-15 30-8 0-15 5-15 10 0 6-16 10-36 10s-33-4-29-10z"/><path d="M2560 680c11-22 27-65 35-97 8-31 18-60 22-64 5-4 91-39 192-78l185-70 55 29c61 33 119 76 111 82-3 3-122 49-265 103-143 53-281 106-308 116l-47 19 20-40z" fill="url(#b)"/></g></g><g style="transform:none;transform-origin:50% 50% 0"><g style="transform:none" fill="url(#b)"><path d="M4755 4579c-33-4-113-15-178-23-66-8-122-18-127-22-13-15-520-1017-516-1021 2-2 46 1 97 8 123 15 244 50 348 102l85 42 221 435c218 429 221 435 253 438 37 4 43 27 10 35-50 12-136 15-193 6zM3431 2430c-255-588-464-1072-464-1077-3-23 500-380 514-366 4 5 197 445 428 980l422 972-71 173c-89 214-114 261-164 304-39 33-111 65-172 77l-30 6-463-1069zM2605 534c4-16 19-54 33-84 23-47 35-59 81-83 41-20 69-27 112-27 51 0 165 28 196 48 10 6-110 55-415 170-10 3-11-3-7-24z"/></g></g><g style="transform:none;transform-origin:50% 50% 0"><g style="transform:none" fill="url(#b)"><path d="M4788 4393c-53-104-162-318-243-477l-148-289 50 27c257 140 508 453 578 721 22 86 20 131-9 160-22 22-81 45-116 45-10 0-50-66-112-187zM3876 1990c-410-946-428-991-410-1004 22-17 390-251 443-283l37-22 182 422 183 422 2 110c3 104 6 117 49 230 84 218 115 385 105 570-4 61-13 138-22 173-16 68-127 372-135 372-3 0-198-446-434-990z"/></g></g><g style="transform:none;transform-origin:50% 50% 0"><path d="M4131 1208c-96-222-185-427-198-456l-23-53 37-16c53-22 138-21 193 4 197 88 299 486 199 775-12 32-24 79-27 104-7 44-8 41-181-358z" fill="url(#b)" style="transform:none"/></g></svg>